<svg 
 xmlns="http://www.w3.org/2000/svg"
 xmlns:xlink="http://www.w3.org/1999/xlink"
 width="21px" height="20px">
<path fill-rule="evenodd"  fill="rgb(255, 255, 255)"
 d="M15.189,10.999 C15.930,10.999 16.583,10.589 16.919,9.969 L20.459,3.479 C20.825,2.819 20.350,1.999 19.599,1.999 L4.965,1.999 L4.35,0.0 L0.802,0.0 L0.802,1.999 L2.780,1.999 L6.339,9.589 L5.4,12.29 C4.283,13.369 5.232,14.999 6.735,14.999 L18.600,14.999 L18.600,12.999 L6.735,12.999 L7.822,10.999 L15.189,10.999 ZM5.904,3.999 L17.918,3.999 L15.189,8.999 L8.247,8.999 L5.904,3.999 ZM6.735,15.999 C5.647,15.999 4.767,16.899 4.767,17.999 C4.767,19.99 5.647,19.999 6.735,19.999 C7.822,19.999 8.712,19.99 8.712,17.999 C8.712,16.899 7.822,15.999 6.735,15.999 ZM16.622,15.999 C15.535,15.999 14.655,16.899 14.655,17.999 C14.655,19.99 15.535,19.999 16.622,19.999 C17.710,19.999 18.600,19.99 18.600,17.999 C18.600,16.899 17.710,15.999 16.622,15.999 Z"/>
</svg>