<svg 
 xmlns="http://www.w3.org/2000/svg"
 xmlns:xlink="http://www.w3.org/1999/xlink"
 width="20px" height="20px">
<path fill-rule="evenodd"  fill="rgb(177, 177, 177)"
 d="M1.999,1.999 L17.999,1.999 L17.999,13.999 L3.169,13.999 L1.999,15.169 L1.999,1.999 M1.999,0.0 C0.899,0.0 0.9,0.899 0.9,1.999 L0.0,19.999 L3.999,15.999 L17.999,15.999 C19.99,15.999 19.999,15.99 19.999,13.999 L19.999,1.999 C19.999,0.899 19.99,0.0 17.999,0.0 L1.999,0.0 ZM3.999,9.999 L15.999,9.999 L15.999,11.999 L3.999,11.999 L3.999,9.999 ZM3.999,6.999 L11.999,6.999 L11.999,8.999 L3.999,8.999 L3.999,6.999 ZM3.999,3.999 L14.999,3.999 L14.999,5.999 L3.999,5.999 L3.999,3.999 Z"/>
</svg>