<svg 
 xmlns="http://www.w3.org/2000/svg"
 xmlns:xlink="http://www.w3.org/1999/xlink"
 width="24px" height="16px">
<path fill-rule="evenodd"  fill="rgb(255, 221, 0)"
 d="M19.499,15.999 L4.500,15.999 C4.87,15.999 3.723,15.743 3.603,15.369 L0.40,4.258 C0.67,3.919 0.45,3.552 0.329,3.323 C0.612,3.93 1.12,3.45 1.348,3.200 L6.478,5.568 L11.291,0.306 C11.469,0.111 11.728,0.0 11.999,0.0 C12.271,0.0 12.529,0.111 12.708,0.306 L17.521,5.568 L22.651,3.200 C22.986,3.45 23.386,3.94 23.670,3.323 C23.953,3.552 24.67,3.919 23.958,4.258 L20.396,15.369 C20.276,15.743 19.912,15.999 19.499,15.999 Z"/>
</svg>