<svg
 xmlns="http://www.w3.org/2000/svg"
 xmlns:xlink="http://www.w3.org/1999/xlink"
 width="22px" height="20px">
<path fill-rule="evenodd"  fill="rgb(214, 90, 73)"
 d="M13.999,0.0 L4.999,0.0 C4.169,0.0 3.459,0.499 3.159,1.219 L0.139,8.269 C0.49,8.499 0.0,8.739 0.0,8.999 L0.0,10.999 C0.0,12.99 0.899,12.999 1.999,12.999 L8.309,12.999 L7.359,17.569 L7.329,17.889 C7.329,18.299 7.499,18.679 7.769,18.949 L8.829,19.999 L15.419,13.409 C15.779,13.49 15.999,12.549 15.999,11.999 L15.999,1.999 C15.999,0.899 15.99,0.0 13.999,0.0 ZM13.999,11.999 L9.659,16.339 L10.999,10.999 L1.999,10.999 L1.999,8.999 L4.999,1.999 L13.999,1.999 L13.999,11.999 ZM21.999,11.999 L17.999,11.999 L17.999,0.0 L21.999,0.0 L21.999,11.999 Z"/>
</svg>
