<svg
 xmlns="http://www.w3.org/2000/svg"
 xmlns:xlink="http://www.w3.org/1999/xlink"
 width="22px" height="18px">
<path fill-rule="evenodd"  fill="rgb(51, 51, 51)"
 d="M21.999,8.998 L18.9,12.998 L18.9,9.998 L6.999,9.998 L6.999,7.998 L18.9,7.998 L18.9,4.998 L21.999,8.998 ZM12.999,1.998 L1.999,1.999 L1.999,14.999 L1.999,14.999 L1.999,17.998 L0.0,17.998 L0.0,11.999 L0.0,11.999 L0.0,0.0 L0.999,0.0 L0.999,0.0 L14.999,0.1 C14.999,0.1 14.999,1.903 14.999,5.999 L12.999,5.999 C12.999,2.806 12.999,1.998 12.999,1.998 ZM14.999,17.998 L12.999,17.998 C12.999,17.998 12.999,15.999 12.999,11.999 L14.999,12.30 C14.999,16.161 14.999,17.998 14.999,17.998 Z"/>
</svg>
