<svg
 xmlns="http://www.w3.org/2000/svg"
 xmlns:xlink="http://www.w3.org/1999/xlink"
 width="24px" height="24px">
<path fill-rule="evenodd"  fill="rgb(59, 87, 157)"
 d="M19.999,0.0 L3.999,0.0 C1.790,0.0 0.0,1.790 0.0,3.999 L0.0,19.999 C0.0,22.209 1.790,23.999 3.999,23.999 L11.771,23.999 C11.771,23.999 11.771,18.338 11.771,13.642 L9.699,13.642 L9.699,9.502 L11.754,9.502 L11.754,7.629 C11.754,5.935 12.562,3.286 16.114,3.286 L19.314,3.301 L19.314,6.850 C19.314,6.850 17.366,6.850 16.991,6.850 C16.611,6.850 16.73,7.38 16.73,7.844 L16.73,9.502 L19.365,9.502 L19.371,13.642 L15.913,13.642 C15.913,18.280 15.913,23.999 15.913,23.999 L19.999,23.999 C22.209,23.999 23.999,22.209 23.999,19.999 L23.999,3.999 C23.999,1.790 22.209,0.0 19.999,0.0 Z"/>
</svg>
