<svg
 xmlns="http://www.w3.org/2000/svg"
 xmlns:xlink="http://www.w3.org/1999/xlink"
 width="22px" height="20px">
<path fill-rule="evenodd"  fill="rgb(112, 194, 96)"
 d="M7.999,19.999 L16.999,19.999 C17.829,19.999 18.539,19.499 18.839,18.779 L21.859,11.729 C21.949,11.499 21.999,11.259 21.999,10.999 L21.999,8.999 C21.999,7.899 21.99,6.999 19.999,6.999 L13.689,6.999 L14.639,2.429 L14.669,2.109 C14.669,1.699 14.499,1.319 14.229,1.49 L13.169,0.0 L6.579,6.589 C6.219,6.949 5.999,7.449 5.999,7.999 L5.999,17.999 C5.999,19.99 6.899,19.999 7.999,19.999 ZM7.999,7.999 L12.339,3.659 L10.999,8.999 L19.999,8.999 L19.999,10.999 L16.999,17.999 L7.999,17.999 L7.999,7.999 ZM0.0,7.999 L3.999,7.999 L3.999,19.999 L0.0,19.999 L0.0,7.999 Z"/>
</svg>
