<svg
 xmlns="http://www.w3.org/2000/svg"
 xmlns:xlink="http://www.w3.org/1999/xlink"
 width="24px" height="24px">
<path fill-rule="evenodd"  fill="rgb(0, 119, 181)"
 d="M19.999,0.0 L3.999,0.0 C1.790,0.0 0.0,1.790 0.0,3.999 L0.0,19.999 C0.0,22.209 1.790,23.999 3.999,23.999 L19.999,23.999 C22.209,23.999 23.999,22.209 23.999,19.999 L23.999,3.999 C23.999,1.790 22.209,0.0 19.999,0.0 ZM8.267,17.981 L5.17,17.981 L5.17,8.671 L8.267,8.671 L8.267,17.981 ZM6.304,7.241 C5.690,7.117 5.190,6.624 5.57,6.10 C4.828,4.954 5.624,4.16 6.642,4.16 C7.540,4.16 8.267,4.747 8.267,5.645 C8.267,6.657 7.351,7.452 6.304,7.241 ZM18.945,17.981 L16.158,17.981 L16.158,13.187 C16.158,12.103 16.39,10.972 14.560,10.972 C13.60,10.972 12.830,11.891 12.830,13.108 L12.830,17.981 L10.123,17.981 L10.123,8.671 L12.753,8.671 L12.753,9.669 C13.139,8.934 13.806,8.671 15.485,8.671 C17.851,8.671 18.727,9.776 18.945,11.531 C18.997,11.941 18.945,17.981 18.945,17.981 Z"/>
</svg>
