<svg version="1.1" id="Layer_1" xmlns="http://www.w3.org/2000/svg" xmlns:xlink="http://www.w3.org/1999/xlink" x="0px" y="0px"
	 viewBox="0 0 556 127" style="enable-background:new 0 0 556 127;" xml:space="preserve">
<style type="text/css">
	.st0{opacity:0.7;}
	.st1{fill:url(#SVGID_1_);}
	.st2{fill:url(#SVGID_2_);}
	.st3{fill:url(#SVGID_3_);}
	.st4{fill:#128141;}
	.st5{fill:#343434;}
</style>
<g>
	<g>
		<g class="st0">
			<linearGradient id="SVGID_1_" gradientUnits="userSpaceOnUse" x1="7.4705" y1="36.6702" x2="114.8512" y2="36.6702">
				<stop  offset="0" style="stop-color:#FFFFFF;stop-opacity:0"/>
				<stop  offset="1" style="stop-color:#128141"/>
			</linearGradient>
			<path class="st1" d="M114.9,63.5H98c0-20.3-16.5-36.8-36.8-36.8c-20.3,0-36.8,16.5-36.8,36.8H7.5c0-29.6,24.1-53.7,53.7-53.7
				C90.8,9.8,114.9,33.9,114.9,63.5z"/>
		</g>
		<g class="st0">
			
				<linearGradient id="SVGID_2_" gradientUnits="userSpaceOnUse" x1="-7798.6587" y1="-1416.8149" x2="-7691.2778" y2="-1416.8149" gradientTransform="matrix(-1 0 0 -1 -7683.7065 -1326.4545)">
				<stop  offset="0" style="stop-color:#FFFFFF;stop-opacity:0"/>
				<stop  offset="1" style="stop-color:#128141"/>
			</linearGradient>
			<path class="st2" d="M61.3,117.2c-29.6,0-53.7-24.1-53.7-53.7h16.9c0,20.3,16.5,36.8,36.8,36.8c20.3,0,36.8-16.5,36.8-36.8H115
				C115,93.1,90.9,117.2,61.3,117.2z"/>
		</g>
		<linearGradient id="SVGID_3_" gradientUnits="userSpaceOnUse" x1="76.9949" y1="79.1303" x2="46.5963" y2="49.1444">
			<stop  offset="5.405405e-03" style="stop-color:#128141"/>
			<stop  offset="1" style="stop-color:#3EAF6C"/>
		</linearGradient>
		<circle class="st3" cx="61.1" cy="63.4" r="18.8"/>
		<circle class="st4" cx="106.5" cy="63.5" r="8.5"/>
		<circle class="st4" cx="16" cy="63.4" r="8.5"/>
	</g>
	<g>
		<path class="st5" d="M146.5,49.9c0-0.5,0.2-0.9,0.6-1.1c2.4-1.1,5.4-1.6,8.1-1.6c7.6,0,10.6,3.9,10.6,9.9c0,1.8-0.1,5.4-0.1,7.2
			c0,2.3,0.1,4.8,0.2,6.6c0,0.7-0.5,1.2-1.1,1.2h-3.3c-0.6,0-1.1-0.5-1.1-1.1c0-0.3,0-0.6,0-0.9c0-0.6,0-1.4,0.1-2.1h-0.1
			c-1.7,2.8-4.4,4.6-8.5,4.5c-4.4,0-8.1-3.4-8-7.9c0.2-4.9,4.6-7.7,12.5-7.7c1,0,2.3,0,3.5,0.1c0-3.7-1.8-5.4-5.7-5.4
			c-2,0-4.1,0.5-5.9,1.4c-0.7,0.3-1.6-0.2-1.6-1L146.5,49.9z M157.9,60.9c-5,0-7.8,1-7.8,3.9c0,2.1,1.4,3.3,3.8,3.3
			c3.3,0,6.1-2.1,6.1-7.1C159.1,60.9,158.6,60.9,157.9,60.9z"/>
		<path class="st5" d="M174.4,36.5h4.1c0.6,0,1.1,0.5,1.1,1.1v33.5c0,0.6-0.5,1.1-1.1,1.1h-4.1c-0.6,0-1.1-0.5-1.1-1.1V37.6
			C173.2,37,173.7,36.5,174.4,36.5z"/>
		<path class="st5" d="M188.9,36.5h4.1c0.6,0,1.1,0.5,1.1,1.1v33.5c0,0.6-0.5,1.1-1.1,1.1h-4.1c-0.6,0-1.1-0.5-1.1-1.1V37.6
			C187.8,37,188.3,36.5,188.9,36.5z"/>
		<path class="st5" d="M207.1,61.8c0.1,3.7,3.1,6.2,7.5,6.2c2,0,3.9-0.4,5.5-1.1c0.8-0.3,1.6,0.2,1.6,1l0,2.6c0,0.5-0.3,0.9-0.7,1.1
			c-2,0.8-4.5,1.3-7.3,1.3c-8.3,0-13.6-5-13.2-13.7c0.3-6.7,5.6-11.8,12.3-11.8c7,0,10.6,4.3,10.6,13c0,0.1,0,0.3,0,0.4
			c0,0.6-0.5,1.1-1.1,1.1H207.1z M217.7,57.5c0-4-2-5.7-5.1-5.7c-2.8,0-5.3,1.9-5.6,5.7H217.7z"/>
		<path class="st5" d="M235.8,51.9c1.8-2.9,4.6-4.6,8.1-4.6c6.5,0,8.8,4.2,8.8,10.7v13.1c0,0.6-0.5,1.1-1.1,1.1h-4
			c-0.6,0-1.1-0.5-1.1-1.1V60.5c0-4.7-0.2-8.1-4.4-8.1c-2.1,0-4,1.3-5,3.2c-0.7,1.4-1,3.3-1,5.7v9.9c0,0.6-0.5,1.1-1.1,1.1h-4
			c-0.6,0-1.1-0.5-1.1-1.1V55.4c0-2,0-4.2-0.2-6.4c0-0.7,0.5-1.2,1.1-1.2h3.8c0.6,0,1.1,0.5,1.1,1.1C235.7,49.9,235.7,51,235.8,51.9
			L235.8,51.9z"/>
		<path class="st5" d="M265.3,61.8c0.1,3.7,3.1,6.2,7.5,6.2c2,0,3.9-0.4,5.5-1.1c0.8-0.3,1.6,0.2,1.6,1l0,2.6c0,0.5-0.3,0.9-0.7,1.1
			c-2,0.8-4.5,1.3-7.3,1.3c-8.3,0-13.6-5-13.2-13.7c0.3-6.7,5.6-11.8,12.3-11.8c7,0,10.6,4.3,10.6,13c0,0.1,0,0.3,0,0.4
			c0,0.6-0.5,1.1-1.1,1.1H265.3z M275.9,57.5c0-4-2-5.7-5.1-5.7c-2.8,0-5.3,1.9-5.6,5.7H275.9z"/>
		<path class="st5" d="M293.9,52.5c1.3-3.2,3.6-5.2,7-5.2c0.4,0,0.8,0,1.1,0.1c0.6,0.1,1,0.6,0.9,1.2l-0.1,3.1
			c0,0.7-0.6,1.2-1.3,1.1c-0.3,0-0.6-0.1-1-0.1c-4.3,0-6.3,3.3-6.3,9.6v8.8c0,0.6-0.5,1.1-1.1,1.1H289c-0.6,0-1.1-0.5-1.1-1.1v-16
			c0-2.1,0-4.2-0.1-6c0-0.7,0.5-1.2,1.1-1.2h3.7c0.6,0,1.1,0.5,1.1,1.1C293.7,50.1,293.8,51.5,293.9,52.5L293.9,52.5z"/>
		<path class="st5" d="M329.3,47.9c0.6,0,1.1,0.5,1.1,1.1v21.4c0,7.3-3.9,12.4-12.8,12.4c-3,0-6-0.4-8.9-1.3
			c-0.5-0.2-0.8-0.7-0.8-1.2l0.3-2.9c0.1-0.8,0.9-1.2,1.6-0.9c2.5,1.1,5,1.6,7.3,1.6c4.3,0,7.2-2.4,7.2-7.7c0-0.8,0-1.7,0.1-2.5
			h-0.1c-1.5,2.5-4,4.4-7.8,4.4c-6.3,0-10.5-4.9-10.5-12.1c0-7.6,4.2-12.9,10.9-12.9c3.8,0,6.2,1.8,7.7,4.5h0.1
			c-0.1-1-0.1-1.9-0.1-2.7c0-0.6,0.5-1.1,1.1-1.1H329.3z M312.5,59.8c0,4.4,2.2,7.4,5.7,7.4c3.6,0,6-3.2,6-7.5
			c0-4.3-2.4-7.6-6.1-7.6C314.8,52.2,312.5,55.5,312.5,59.8z"/>
		<path class="st5" d="M343.2,61.8c0.1,3.7,3.1,6.2,7.5,6.2c2,0,3.9-0.4,5.5-1.1c0.8-0.3,1.6,0.2,1.6,1l0,2.6c0,0.5-0.3,0.9-0.7,1.1
			c-2,0.8-4.5,1.3-7.3,1.3c-8.3,0-13.6-5-13.2-13.7c0.3-6.7,5.6-11.8,12.3-11.8c7,0,10.6,4.3,10.6,13c0,0.1,0,0.3,0,0.4
			c0,0.6-0.5,1.1-1.1,1.1H343.2z M353.8,57.5c0-4-2-5.7-5.1-5.7c-2.8,0-5.3,1.9-5.6,5.7H353.8z"/>
		<path class="st5" d="M362.9,51.4V49c0-0.6,0.5-1.1,1.1-1.1h3.6v-4.3c0-0.5,0.3-0.9,0.8-1.1l3.7-1.3c0.7-0.3,1.5,0.3,1.5,1.1v5.6
			h4.7c0.6,0,1.1,0.5,1.1,1.1v2.4c0,0.6-0.5,1.1-1.1,1.1h-4.7v9.5c0,3.7,0.7,5.4,3.8,5.4c0.3,0,0.7,0,1.1-0.1
			c0.7-0.1,1.3,0.4,1.3,1.1l0.1,2.6c0,0.5-0.3,1-0.9,1.1c-1,0.2-2.2,0.4-3.5,0.4c-5.6,0-8-2.7-8-9.2V52.6H364
			C363.4,52.6,362.9,52,362.9,51.4z"/>
		<path class="st5" d="M385.4,42.1v-3.8c0-0.6,0.5-1.1,1.1-1.1h4.1c0.6,0,1.1,0.5,1.1,1.1v3.8c0,0.6-0.5,1.1-1.1,1.1h-4.1
			C385.9,43.2,385.4,42.7,385.4,42.1z M386.5,47.9h4.1c0.6,0,1.1,0.5,1.1,1.1v22.1c0,0.6-0.5,1.1-1.1,1.1h-4.1
			c-0.6,0-1.1-0.5-1.1-1.1V49C385.4,48.4,385.9,47.9,386.5,47.9z"/>
		<path class="st5" d="M415.8,51.6c-0.1,0.7-0.7,1.2-1.4,1c-0.8-0.2-1.6-0.3-2.5-0.3c-4.8,0-7.3,3.5-7.3,7.7c0,4.4,2.3,7.7,7.4,7.7
			c1,0,1.9-0.1,2.8-0.4c0.7-0.2,1.4,0.3,1.5,1l0.2,2.6c0,0.5-0.3,1-0.8,1.2c-1.3,0.3-2.6,0.5-4.3,0.5c-8.1,0-13.4-4.8-13.4-12.4
			c0-7.9,6-12.6,13.2-12.6c1.6,0,2.9,0.1,4.1,0.4c0.6,0.1,0.9,0.7,0.9,1.2L415.8,51.6z"/>
		<path class="st5" d="M421.2,68.1c0.1-0.8,0.8-1.2,1.5-1c1.9,0.7,3.7,1,5.4,1c2.1,0,4-0.9,4-2.6c0-1.7-0.9-2.4-4.8-3.7
			c-4.6-1.6-6.5-3.5-6.5-7.1c0-4.6,3.8-7.5,9.7-7.5c2.2,0,4.1,0.3,5.7,0.8c0.5,0.2,0.9,0.7,0.8,1.2l-0.3,2.4
			c-0.1,0.7-0.8,1.2-1.5,0.9c-1.5-0.6-3-0.8-4.5-0.8c-2.1,0-3.7,0.9-3.7,2.6s1,2.2,4.5,3.4c4.3,1.4,6.9,3.2,6.9,7.3
			c0,5-4.1,7.8-10,7.8c-2.4,0-4.6-0.3-6.7-1c-0.5-0.2-0.8-0.6-0.8-1.2L421.2,68.1z"/>
		<path class="st5" d="M445.1,65.4h4.5c0.6,0,1.1,0.5,1.1,1.1v4.5c0,0.6-0.5,1.1-1.1,1.1h-4.5c-0.6,0-1.1-0.5-1.1-1.1v-4.5
			C444,65.9,444.5,65.4,445.1,65.4z"/>
		<path class="st5" d="M473.9,51.6c-0.1,0.7-0.7,1.2-1.4,1c-0.8-0.2-1.6-0.3-2.5-0.3c-4.8,0-7.3,3.5-7.3,7.7c0,4.4,2.3,7.7,7.4,7.7
			c1,0,1.9-0.1,2.8-0.4c0.7-0.2,1.4,0.3,1.5,1l0.2,2.6c0,0.5-0.3,1-0.8,1.2c-1.3,0.3-2.6,0.5-4.3,0.5c-8.1,0-13.4-4.8-13.4-12.4
			c0-7.9,6-12.6,13.2-12.6c1.6,0,2.9,0.1,4.1,0.4c0.6,0.1,0.9,0.7,0.9,1.2L473.9,51.6z"/>
		<path class="st5" d="M504.7,60.1c0,7.6-5.2,12.7-12.8,12.7c-7.6,0-12.8-5.2-12.8-12.7c0-7.9,5.2-12.8,13-12.8
			C499.5,47.3,504.7,52.4,504.7,60.1z M485.8,60.1c0,4.8,2.4,7.9,6,7.9c3.8,0,6.2-3.1,6.2-8.1s-2.3-7.9-6.2-7.9
			C488,52,485.8,54.9,485.8,60.1z"/>
		<path class="st5" d="M516.8,52c1.6-3,4.8-4.7,8.1-4.7c3.3,0,6.1,1.8,6.9,4.8c1.8-3.2,5-4.8,8.5-4.8c6.1,0,8,4.7,8,10.7v13.1
			c0,0.6-0.5,1.1-1.1,1.1h-4.1c-0.6,0-1.1-0.5-1.1-1.1V58.7c0-4.2-1.4-6.3-4.1-6.3c-3,0-5.1,2.9-5.1,7.8v10.9c0,0.6-0.5,1.1-1.1,1.1
			h-4.1c-0.6,0-1.1-0.5-1.1-1.1V57.5c0-3-1.4-5.2-4-5.2c-2.9,0-5.2,3.1-5.2,7.6v11.2c0,0.6-0.5,1.1-1.1,1.1H512
			c-0.6,0-1.1-0.5-1.1-1.1V55.4c0-2,0-4.2-0.2-6.4c0-0.7,0.5-1.2,1.1-1.2h3.6c0.6,0,1.1,0.5,1.1,1.1C516.7,49.9,516.7,51.2,516.8,52
			L516.8,52z"/>
	</g>
</g>
</svg>