<svg 
 xmlns="http://www.w3.org/2000/svg"
 xmlns:xlink="http://www.w3.org/1999/xlink"
 width="18px" height="18px">
<path fill-rule="evenodd"  fill="rgb(177, 177, 177)"
 d="M3.539,1.999 C3.599,2.889 3.749,3.759 3.989,4.589 L2.789,5.789 C2.379,4.589 2.119,3.319 2.29,1.999 L3.539,1.999 M13.399,14.19 C14.249,14.259 15.119,14.409 15.999,14.469 L15.999,15.959 C14.679,15.869 13.409,15.609 12.199,15.209 L13.399,14.19 M4.499,0.0 L0.999,0.0 C0.449,0.0 0.0,0.449 0.0,0.999 C0.0,10.389 7.609,17.999 16.999,17.999 C17.549,17.999 17.999,17.549 17.999,16.999 L17.999,13.509 C17.999,12.959 17.549,12.509 16.999,12.509 C15.759,12.509 14.549,12.309 13.429,11.939 C13.329,11.899 13.219,11.889 13.119,11.889 C12.859,11.889 12.609,11.989 12.409,12.179 L10.209,14.379 C7.379,12.929 5.59,10.619 3.619,7.789 L5.819,5.589 C6.99,5.309 6.179,4.919 6.69,4.569 C5.699,3.449 5.499,2.249 5.499,0.999 C5.499,0.449 5.49,0.0 4.499,0.0 Z"/>
</svg>