<svg 
 xmlns="http://www.w3.org/2000/svg"
 xmlns:xlink="http://www.w3.org/1999/xlink"
 width="18px" height="18px">
<path fill-rule="evenodd"  fill="rgb(255, 255, 255)"
 d="M13.999,0.0 L1.999,0.0 C0.889,0.0 0.0,0.899 0.0,1.999 L0.0,15.999 C0.0,17.99 0.889,17.999 1.999,17.999 L15.999,17.999 C17.99,17.999 17.999,17.99 17.999,15.999 L17.999,3.999 L13.999,0.0 ZM8.999,15.999 C7.339,15.999 5.999,14.659 5.999,12.999 C5.999,11.339 7.339,9.999 8.999,9.999 C10.659,9.999 11.999,11.339 11.999,12.999 C11.999,14.659 10.659,15.999 8.999,15.999 ZM11.999,5.999 L1.999,5.999 L1.999,1.999 L11.999,1.999 L11.999,5.999 Z"/>
</svg>