<svg 
 xmlns="http://www.w3.org/2000/svg"
 xmlns:xlink="http://www.w3.org/1999/xlink"
 width="18px" height="20px">
<path fill-rule="evenodd"  fill="rgb(177, 177, 177)"
 d="M14.999,14.123 C14.239,14.123 13.559,14.425 13.39,14.896 L5.909,10.731 C5.959,10.500 5.999,10.270 5.999,10.29 C5.999,9.788 5.959,9.557 5.909,9.326 L12.959,5.201 C13.499,5.703 14.209,6.14 14.999,6.14 C16.659,6.14 17.999,4.669 17.999,3.3 C17.999,1.337 16.659,0.7 14.999,0.7 C13.339,0.7 11.999,1.337 11.999,3.3 C11.999,3.244 12.39,3.475 12.89,3.706 L5.39,7.831 C4.499,7.329 3.789,7.18 2.999,7.18 C1.339,7.18 0.0,8.363 0.0,10.29 C0.0,11.695 1.339,13.40 2.999,13.40 C3.789,13.40 4.499,12.729 5.39,12.227 L12.159,16.402 C12.109,16.613 12.79,16.834 12.79,17.54 C12.79,18.670 13.389,19.985 14.999,19.985 C16.609,19.985 17.919,18.670 17.919,17.54 C17.919,15.438 16.609,14.123 14.999,14.123 ZM14.999,2.0 C15.549,2.0 15.999,2.451 15.999,3.3 C15.999,3.555 15.549,4.7 14.999,4.7 C14.449,4.7 13.999,3.555 13.999,3.3 C13.999,2.451 14.449,2.0 14.999,2.0 ZM2.999,11.32 C2.449,11.32 1.999,10.581 1.999,10.29 C1.999,9.477 2.449,9.25 2.999,9.25 C3.549,9.25 3.999,9.477 3.999,10.29 C3.999,10.581 3.549,11.32 2.999,11.32 ZM14.999,18.78 C14.449,18.78 13.999,17.626 13.999,17.74 C13.999,16.522 14.449,16.71 14.999,16.71 C15.549,16.71 15.999,16.522 15.999,17.74 C15.999,17.626 15.549,18.78 14.999,18.78 Z"/>
</svg>