<svg 
 xmlns="http://www.w3.org/2000/svg"
 xmlns:xlink="http://www.w3.org/1999/xlink"
 width="18px" height="18px">
<path fill-rule="evenodd"  fill="rgb(15, 128, 64)"
 d="M15.999,15.999 L1.999,15.999 L1.999,1.999 L7.999,1.999 L7.999,0.0 L1.999,0.0 C0.889,0.0 0.0,0.899 0.0,1.999 L0.0,15.999 C0.0,17.99 0.889,17.999 1.999,17.999 L15.999,17.999 C17.99,17.999 17.999,17.99 17.999,15.999 L17.999,9.999 L15.999,9.999 L15.999,15.999 ZM10.999,0.0 L10.999,1.999 L14.589,1.999 L4.759,11.829 L6.169,13.239 L15.999,3.409 L15.999,6.999 L17.999,6.999 L17.999,0.0 L10.999,0.0 Z"/>
</svg>