<svg
 xmlns="http://www.w3.org/2000/svg"
 xmlns:xlink="http://www.w3.org/1999/xlink"
 width="22px" height="22px">
<path fill-rule="evenodd"  fill="rgb(51, 51, 51)"
 d="M10.999,21.999 L9.999,21.999 L9.999,15.429 C8.929,16.399 7.519,16.999 5.999,16.999 C2.749,16.999 0.0,14.249 0.0,10.999 L0.0,9.999 L6.569,9.999 C5.599,8.929 4.999,7.519 4.999,5.999 C4.999,2.749 7.749,0.0 10.999,0.0 L11.999,0.0 L11.999,6.569 C13.69,5.599 14.479,4.999 15.999,4.999 C19.249,4.999 21.999,7.749 21.999,10.999 L21.999,11.999 L15.429,11.999 C16.399,13.69 16.999,14.479 16.999,15.999 C16.999,19.249 14.249,21.999 10.999,21.999 ZM11.999,12.129 L11.999,19.869 C13.699,19.409 14.999,17.829 14.999,15.999 C14.999,14.169 13.699,12.589 11.999,12.129 ZM2.129,11.999 C2.589,13.699 4.169,14.999 5.999,14.999 C7.829,14.999 9.409,13.699 9.869,11.999 L2.129,11.999 ZM12.129,9.999 L19.869,9.999 C19.409,8.299 17.819,6.999 15.999,6.999 C14.179,6.999 12.589,8.299 12.129,9.999 ZM9.999,2.129 C8.299,2.589 6.999,4.179 6.999,5.999 C6.999,7.819 8.299,9.409 9.999,9.869 L9.999,2.129 Z"/>
</svg>
