<svg
 xmlns="http://www.w3.org/2000/svg"
 xmlns:xlink="http://www.w3.org/1999/xlink"
 width="24px" height="24px">
<path fill-rule="evenodd"  fill="rgb(0, 172, 229)"
 d="M19.999,23.999 L3.999,23.999 C1.790,23.999 0.0,22.209 0.0,19.999 L0.0,3.999 C0.0,1.790 1.790,0.0 3.999,0.0 L19.999,0.0 C22.209,0.0 23.999,1.790 23.999,3.999 L23.999,19.999 C23.999,22.209 22.209,23.999 19.999,23.999 ZM17.451,6.442 C17.403,6.442 17.353,6.450 17.304,6.469 L4.578,11.304 C4.218,11.441 4.228,11.953 4.592,12.76 L7.543,13.73 L9.322,16.634 C9.322,16.635 9.323,16.636 9.323,16.637 L9.328,16.646 L9.329,16.646 C9.362,16.711 9.429,16.754 9.500,16.754 C9.543,16.754 9.586,16.740 9.623,16.708 L11.290,15.295 L14.36,17.379 C14.190,17.496 14.367,17.550 14.540,17.550 C14.906,17.550 15.257,17.310 15.356,16.914 L17.847,6.952 C17.915,6.682 17.704,6.442 17.451,6.442 ZM8.236,12.967 L15.347,8.696 L9.429,13.882 L9.574,15.737 L8.236,12.967 ZM11.290,15.295 L11.290,15.295 L9.429,13.882 L11.290,15.295 Z"/>
</svg>
