<svg
 xmlns="http://www.w3.org/2000/svg"
 xmlns:xlink="http://www.w3.org/1999/xlink"
 width="22px" height="20px">
<path fill-rule="evenodd"  fill="rgb(15, 128, 64)"
 d="M11.869,13.69 L9.329,10.559 L9.359,10.529 C11.99,8.589 12.339,6.359 13.69,3.999 L15.999,3.999 L15.999,1.999 L9.0,1.999 L9.0,0.0 L6.999,0.0 L6.999,1.999 L0.0,1.999 L0.0,3.989 L11.169,3.989 C10.499,5.919 9.439,7.749 7.999,9.349 C7.69,8.319 6.299,7.189 5.689,5.999 L3.689,5.999 C4.419,7.629 5.419,9.169 6.669,10.559 L1.579,15.579 L2.999,16.999 L7.999,11.999 L11.109,15.109 L11.869,13.69 ZM17.499,7.999 L15.499,7.999 L10.999,19.999 L12.999,19.999 L14.119,16.999 L18.869,16.999 L19.999,19.999 L21.999,19.999 L17.499,7.999 ZM14.879,14.999 L16.499,10.669 L18.119,14.999 L14.879,14.999 Z"/>
</svg>
