<svg 
 xmlns="http://www.w3.org/2000/svg"
 xmlns:xlink="http://www.w3.org/1999/xlink"
 width="93px" height="97px">
<path fill-rule="evenodd"  fill="rgb(230, 230, 230)"
 d="M92.505,90.908 C92.2,85.240 92.46,78.332 88.324,73.586 C85.618,70.138 80.994,69.380 77.21,68.176 C72.284,66.739 67.546,65.303 62.807,63.866 C60.638,61.942 58.651,61.821 58.561,61.816 C57.683,59.566 57.62,56.989 56.875,54.484 C56.859,54.302 56.848,54.117 56.843,53.937 C56.832,53.859 56.832,53.788 56.827,53.710 C56.826,53.699 56.822,53.689 56.821,53.677 C57.159,53.217 57.472,52.718 57.777,52.111 C58.235,51.204 59.997,47.428 60.703,46.541 C60.655,46.602 61.571,46.864 61.654,46.872 C62.21,46.907 62.441,46.859 62.770,46.685 C63.347,46.384 63.800,45.678 64.119,45.134 C64.891,43.814 65.165,42.288 65.711,40.876 C66.304,39.346 67.375,37.812 67.330,36.110 C67.304,35.123 66.822,34.270 66.115,33.866 C66.378,33.474 66.514,32.971 66.724,32.367 C67.513,30.134 68.41,27.757 67.968,25.380 C68.62,25.488 68.275,25.725 68.492,26.4 C68.876,26.488 69.297,27.97 69.219,27.366 C71.745,18.977 67.449,9.686 60.63,5.320 C58.840,4.593 57.527,4.0 56.148,3.572 C52.898,2.565 49.546,1.246 46.132,1.213 C45.93,1.203 44.48,1.308 42.999,1.582 C43.978,0.944 45.32,0.422 46.132,0.22 C46.150,0.15 46.169,0.7 46.189,0.0 C46.170,0.0 46.150,0.3 46.132,0.3 C43.978,0.91 41.839,0.469 39.793,1.128 C38.647,1.500 37.516,1.969 36.562,2.702 C35.359,3.624 34.586,5.77 34.118,6.491 C33.123,6.58 30.742,6.614 29.710,7.57 C27.127,8.165 25.886,10.352 24.144,12.362 C23.469,13.146 22.915,13.862 22.485,14.616 C21.831,15.734 21.436,16.930 21.265,18.544 C21.58,20.483 21.177,22.441 21.296,24.385 C21.603,23.385 22.85,22.401 22.764,21.601 C22.811,22.487 22.277,23.164 22.90,23.999 C21.857,25.66 22.39,26.257 22.256,27.308 C22.707,29.484 23.682,31.650 25.72,33.397 C25.264,33.644 25.504,33.891 25.758,34.144 C25.643,34.241 25.526,34.335 25.407,34.427 C25.282,34.522 25.174,34.630 25.90,34.748 C23.870,36.460 25.694,39.321 26.298,40.876 C26.781,42.122 27.47,43.450 27.635,44.656 C27.888,45.174 28.208,45.730 28.536,46.200 C28.850,46.652 29.666,46.790 30.183,46.717 C30.454,46.677 30.723,46.541 30.862,46.306 C31.803,48.415 33.188,50.45 34.231,52.112 C34.542,52.727 34.853,53.240 35.198,53.707 C35.191,53.708 35.183,53.710 35.183,53.710 C35.183,53.710 35.307,54.406 35.426,55.509 C35.601,57.58 35.751,59.420 35.550,61.820 C35.520,61.831 35.93,62.4 34.425,62.389 C33.830,62.720 32.991,63.250 32.47,64.36 C30.125,64.792 17.828,69.735 11.117,71.807 C7.440,72.942 3.546,74.265 1.850,78.56 C1.183,79.547 1.249,81.803 1.60,83.409 C0.526,87.920 0.243,92.463 0.13,96.999 L42.852,96.999 L44.153,96.999 L44.226,96.999 L46.762,96.999 L47.103,96.999 L48.210,96.999 L49.39,96.999 L49.102,96.999 L49.499,96.999 L50.577,96.999 L92.997,96.999 C92.845,94.984 92.686,92.959 92.505,90.908 Z"/>
</svg>