<svg 
 xmlns="http://www.w3.org/2000/svg"
 xmlns:xlink="http://www.w3.org/1999/xlink"
 width="25px" height="24px">
<path fill-rule="evenodd"  fill="rgb(84, 172, 237)"
 d="M12.854,0.0 C6.180,0.0 0.769,5.372 0.769,11.999 C0.769,18.626 6.180,23.999 12.854,23.999 C19.527,23.999 24.938,18.626 24.938,11.999 C24.938,5.372 19.527,0.0 12.854,0.0 ZM18.814,10.108 C18.819,10.231 18.823,10.354 18.823,10.478 C18.823,14.269 15.916,18.640 10.604,18.640 C8.972,18.640 7.455,18.165 6.177,17.351 C6.402,17.378 6.632,17.391 6.866,17.391 C8.219,17.391 9.465,16.933 10.453,16.163 C9.189,16.140 8.123,15.311 7.754,14.172 C7.931,14.205 8.112,14.223 8.298,14.223 C8.561,14.223 8.817,14.187 9.59,14.122 C7.738,13.858 6.741,12.699 6.741,11.310 C6.741,11.297 6.741,11.286 6.741,11.273 C7.132,11.488 7.577,11.618 8.50,11.632 C7.276,11.119 6.766,10.240 6.766,9.245 C6.766,8.720 6.908,8.227 7.157,7.802 C8.581,9.538 10.710,10.680 13.110,10.800 C13.61,10.590 13.36,10.371 13.36,10.146 C13.36,8.563 14.328,7.278 15.924,7.278 C16.755,7.278 17.506,7.626 18.33,8.184 C18.690,8.55 19.309,7.816 19.867,7.488 C19.650,8.158 19.193,8.720 18.596,9.75 C19.180,9.6 19.738,8.851 20.255,8.623 C19.868,9.198 19.379,9.703 18.814,10.108 Z"/>
</svg>