<svg 
 xmlns="http://www.w3.org/2000/svg"
 xmlns:xlink="http://www.w3.org/1999/xlink"
 width="25px" height="24px">
<path fill-rule="evenodd"  fill="rgb(96, 168, 222)"
 d="M12.544,23.999 C5.870,23.999 0.459,18.626 0.459,11.999 C0.459,5.372 5.870,0.0 12.544,0.0 C19.218,0.0 24.628,5.372 24.628,11.999 C24.628,18.626 19.218,23.999 12.544,23.999 ZM17.946,6.767 L5.23,11.768 C4.605,11.930 4.630,12.526 5.61,12.652 L8.345,13.615 L9.571,17.477 C9.698,17.880 10.213,18.3 10.511,17.700 L12.209,15.979 L15.540,18.407 C15.948,18.704 16.529,18.483 16.632,17.992 L18.838,7.517 C18.946,7.4 18.438,6.576 17.946,6.767 ZM10.324,14.363 C10.264,14.415 10.226,14.488 10.217,14.567 L9.986,16.607 C9.978,16.673 9.884,16.682 9.864,16.618 L8.913,13.576 C8.870,13.436 8.927,13.285 9.51,13.208 L16.140,8.843 C16.303,8.743 16.470,8.965 16.326,9.91 L10.324,14.363 Z"/>
</svg>