<svg 
 xmlns="http://www.w3.org/2000/svg"
 xmlns:xlink="http://www.w3.org/1999/xlink"
 width="25px" height="24px">
<path fill-rule="evenodd"  fill="rgb(58, 88, 151)"
 d="M12.84,0.0 C5.410,0.0 0.0,5.372 0.0,11.999 C0.0,18.626 5.410,23.999 12.84,23.999 C18.757,23.999 24.168,18.626 24.168,11.999 C24.168,5.372 18.757,0.0 12.84,0.0 ZM15.414,7.341 L13.658,7.341 C13.370,7.341 12.965,7.484 12.965,8.92 L12.965,9.715 L15.407,9.715 L15.121,12.469 L12.965,12.469 L12.965,20.313 L9.698,20.313 L9.698,12.469 L8.145,12.469 L8.145,9.712 L9.698,9.712 L9.698,7.928 C9.698,6.652 10.308,4.654 12.994,4.654 L15.414,4.665 L15.414,7.341 Z"/>
</svg>