<svg
 xmlns="http://www.w3.org/2000/svg"
 xmlns:xlink="http://www.w3.org/1999/xlink"
 width="16px" height="16px">
<path fill-rule="evenodd"  fill="rgb(15, 128, 64)"
 d="M7.999,1.899 C9.159,1.899 10.99,2.839 10.99,3.999 C10.99,5.159 9.159,6.99 7.999,6.99 C6.839,6.99 5.899,5.159 5.899,3.999 C5.899,2.839 6.839,1.899 7.999,1.899 M7.999,10.899 C10.969,10.899 14.99,12.359 14.99,12.999 L14.99,14.99 L1.899,14.99 L1.899,12.999 C1.899,12.359 5.29,10.899 7.999,10.899 M7.999,0.0 C5.789,0.0 3.999,1.789 3.999,3.999 C3.999,6.209 5.789,7.999 7.999,7.999 C10.209,7.999 11.999,6.209 11.999,3.999 C11.999,1.789 10.209,0.0 7.999,0.0 ZM7.999,8.999 C5.329,8.999 0.0,10.339 0.0,12.999 L0.0,15.999 L15.999,15.999 L15.999,12.999 C15.999,10.339 10.669,8.999 7.999,8.999 Z"/>
</svg>
