<svg 
 xmlns="http://www.w3.org/2000/svg"
 xmlns:xlink="http://www.w3.org/1999/xlink"
 width="25px" height="24px">
<path fill-rule="evenodd"  fill="rgb(220, 78, 65)"
 d="M12.915,0.0 C6.241,0.0 0.831,5.372 0.831,11.999 C0.831,18.626 6.241,23.999 12.915,23.999 C19.589,23.999 24.999,18.626 24.999,11.999 C24.999,5.372 19.589,0.0 12.915,0.0 ZM13.769,15.792 C12.920,16.877 11.576,17.435 10.216,17.476 C9.598,17.495 8.977,17.407 8.397,17.213 C6.674,16.651 5.361,15.73 5.89,13.304 C5.50,13.51 5.33,12.794 5.38,12.536 C4.940,9.984 7.191,7.627 9.763,7.597 C11.73,7.486 12.348,7.992 13.341,8.815 C12.934,9.260 12.520,9.699 12.78,10.110 C11.806,9.946 11.517,9.794 11.217,9.673 C10.553,9.407 9.835,9.293 9.133,9.538 C7.590,9.974 6.617,11.697 7.3,13.229 C7.29,13.331 7.60,13.432 7.98,13.532 C7.190,13.836 7.334,14.114 7.515,14.363 C7.521,14.371 7.526,14.380 7.531,14.387 C7.567,14.435 7.607,14.479 7.646,14.525 C7.676,14.560 7.703,14.597 7.735,14.631 C7.754,14.651 7.775,14.669 7.794,14.689 C7.849,14.745 7.904,14.800 7.962,14.852 C7.969,14.857 7.976,14.862 7.982,14.867 C8.56,14.931 8.132,14.992 8.211,15.49 C8.226,15.59 8.242,15.68 8.257,15.78 C8.330,15.128 8.403,15.176 8.479,15.220 C9.308,15.695 10.350,15.812 11.252,15.418 C12.82,15.123 12.629,14.363 12.870,13.545 C11.918,13.526 10.966,13.538 10.15,13.511 C10.12,12.950 10.10,12.390 10.12,11.828 C11.599,11.825 13.189,11.820 14.778,11.834 C14.779,11.858 14.779,11.882 14.781,11.906 C14.867,13.262 14.655,14.704 13.769,15.792 ZM20.717,13.240 C20.244,13.242 19.769,13.245 19.295,13.247 C19.290,13.719 19.288,14.189 19.286,14.662 C18.812,14.659 18.339,14.662 17.868,14.662 C17.863,14.189 17.863,13.719 17.858,13.249 C17.385,13.244 16.909,13.242 16.435,13.240 L16.435,11.832 C16.909,11.830 17.382,11.827 17.858,11.823 C17.861,11.353 17.866,10.881 17.870,10.409 L19.286,10.409 C19.288,10.881 19.292,11.353 19.295,11.823 C19.769,11.828 20.244,11.830 20.717,11.832 L20.717,13.240 Z"/>
</svg>