<svg 
 xmlns="http://www.w3.org/2000/svg"
 xmlns:xlink="http://www.w3.org/1999/xlink"
 width="22px" height="15px">
<path fill-rule="evenodd"  fill="rgb(177, 177, 177)"
 d="M10.999,1.999 C14.789,1.999 18.169,4.129 19.819,7.499 C18.169,10.869 14.789,12.999 10.999,12.999 C7.209,12.999 3.829,10.869 2.179,7.499 C3.829,4.129 7.209,1.999 10.999,1.999 M10.999,0.0 C5.999,0.0 1.729,3.109 0.0,7.499 C1.729,11.889 5.999,14.999 10.999,14.999 C15.999,14.999 20.269,11.889 21.999,7.499 C20.269,3.109 15.999,0.0 10.999,0.0 ZM10.999,4.999 C12.379,4.999 13.499,6.119 13.499,7.499 C13.499,8.879 12.379,9.999 10.999,9.999 C9.619,9.999 8.499,8.879 8.499,7.499 C8.499,6.119 9.619,4.999 10.999,4.999 M10.999,2.999 C8.519,2.999 6.499,5.19 6.499,7.499 C6.499,9.979 8.519,11.999 10.999,11.999 C13.479,11.999 15.499,9.979 15.499,7.499 C15.499,5.19 13.479,2.999 10.999,2.999 Z"/>
</svg>