<svg
 xmlns="http://www.w3.org/2000/svg"
 xmlns:xlink="http://www.w3.org/1999/xlink"
 width="20px" height="22px">
<path fill-rule="evenodd"  fill="rgb(51, 51, 51)"
 d="M18.257,16.431 L18.257,19.694 C18.257,20.932 17.256,21.939 16.26,21.939 L3.202,21.939 C1.972,21.939 0.971,20.932 0.971,19.694 L0.971,6.791 C0.971,5.755 1.675,4.890 2.624,4.631 L12.135,0.110 C12.446,0.37 12.811,0.15 13.102,0.171 C13.393,0.356 13.569,0.678 13.569,1.25 L13.569,4.545 L16.26,4.545 C17.256,4.545 18.257,5.552 18.257,6.791 L18.257,10.54 C19.226,10.238 19.961,11.92 19.961,12.118 L19.961,14.367 C19.961,15.393 19.226,16.247 18.257,16.431 ZM11.560,2.620 L7.510,4.545 L11.560,4.545 L11.560,2.620 ZM16.248,6.791 C16.248,6.667 16.148,6.567 16.26,6.567 L3.202,6.567 C3.80,6.567 2.980,6.667 2.980,6.791 L2.980,19.694 C2.980,19.818 3.80,19.917 3.202,19.917 L16.26,19.917 C16.148,19.917 16.248,19.818 16.248,19.694 L16.248,16.470 L14.172,16.470 C12.403,16.470 10.964,15.22 10.964,13.243 C10.964,11.462 12.403,10.15 14.172,10.15 L16.248,10.15 L16.248,6.791 ZM17.952,12.118 C17.952,12.73 17.915,12.37 17.871,12.37 L14.172,12.37 C13.511,12.37 12.973,12.578 12.973,13.243 C12.973,13.907 13.511,14.448 14.172,14.448 L17.871,14.448 C17.915,14.448 17.952,14.411 17.952,14.367 L17.952,12.118 Z"/>
</svg>
